HIERARCHY
ROOT Hips
{
	OFFSET 0.00000 0.00000 0.00000
	CHANNELS 6 Xposition Yposition Zposition Zrotation Yrotation Xrotation 
	JOINT LHipJoint
	{
		OFFSET 0 0 0
		CHANNELS 3 Zrotation Yrotation Xrotation
		JOINT LeftUpLeg
		{
			OFFSET 1.46561 -1.72757 0.83774
			CHANNELS 3 Zrotation Yrotation Xrotation
			JOINT LeftLeg
			{
				OFFSET 2.48915 -6.83890 0.00000
				CHANNELS 3 Zrotation Yrotation Xrotation
				JOINT LeftFoot
				{
					OFFSET 2.60555 -7.15868 0.00000
					CHANNELS 3 Zrotation Yrotation Xrotation
					JOINT LeftToeBase
					{
						OFFSET 0.19248 -0.52884 2.26738
						CHANNELS 3 Zrotation Yrotation Xrotation
						End Site
						{
							OFFSET 0.00000 -0.00000 1.17015
						}
					}
				}
			}
		}
	}
	JOINT RHipJoint
	{
		OFFSET 0 0 0
		CHANNELS 3 Zrotation Yrotation Xrotation
		JOINT RightUpLeg
		{
			OFFSET -1.46918 -1.72757 0.83774
			CHANNELS 3 Zrotation Yrotation Xrotation
			JOINT RightLeg
			{
				OFFSET -2.49034 -6.84216 0.00000
				CHANNELS 3 Zrotation Yrotation Xrotation
				JOINT RightFoot
				{
					OFFSET -2.65971 -7.30750 0.00000
					CHANNELS 3 Zrotation Yrotation Xrotation
					JOINT RightToeBase
					{
						OFFSET -0.19227 -0.52827 2.30785
						CHANNELS 3 Zrotation Yrotation Xrotation
						End Site
						{
							OFFSET -0.00000 -0.00000 1.18972
						}
					}
				}
			}
		}
	}
	JOINT LowerBack
	{
		OFFSET 0 0 0
		CHANNELS 3 Zrotation Yrotation Xrotation
		JOINT Spine
		{
			OFFSET 0.02432 2.19909 -0.28000
			CHANNELS 3 Zrotation Yrotation Xrotation
			JOINT Spine1
			{
				OFFSET 0.03714 2.21816 -0.15261
				CHANNELS 3 Zrotation Yrotation Xrotation
				JOINT Neck
				{
					OFFSET 0 0 0
					CHANNELS 3 Zrotation Yrotation Xrotation
					JOINT Neck1
					{
						OFFSET -0.01896 1.56165 0.21681
						CHANNELS 3 Zrotation Yrotation Xrotation
						JOINT Head
						{
							OFFSET 0.02744 1.56009 0.06764
							CHANNELS 3 Zrotation Yrotation Xrotation
							End Site
							{
								OFFSET 0.01212 1.60574 0.00298
							}
						}
					}
				}
				JOINT LeftShoulder
				{
					OFFSET 0 0 0
					CHANNELS 3 Zrotation Yrotation Xrotation
					JOINT LeftArm
					{
						OFFSET 3.05595 1.48048 -0.60794
						CHANNELS 3 Zrotation Yrotation Xrotation
						JOINT LeftForeArm
						{
							OFFSET 5.20607 -0.00000 -0.00000
							CHANNELS 3 Zrotation Yrotation Xrotation
							JOINT LeftHand
							{
								OFFSET 3.39961 -0.00000 0.00000
								CHANNELS 3 Zrotation Yrotation Xrotation
								JOINT LeftFingerBase
								{
									OFFSET 0 0 0
									CHANNELS 3 Zrotation Yrotation Xrotation
									JOINT LeftHandIndex1
									{
										OFFSET 0.51969 -0.00000 0.00000
										CHANNELS 3 Zrotation Yrotation Xrotation
										End Site
										{
											OFFSET 0.41899 -0.00000 0.00000
										}
									}
								}
								JOINT LThumb
								{
									OFFSET 0 0 0
									CHANNELS 3 Zrotation Yrotation Xrotation
									End Site
									{
										OFFSET 0.42539 -0.00000 0.42539
									}
								}
							}
						}
					}
				}
				JOINT RightShoulder
				{
					OFFSET 0 0 0
					CHANNELS 3 Zrotation Yrotation Xrotation
					JOINT RightArm
					{
						OFFSET -2.99052 1.57608 -0.69102
						CHANNELS 3 Zrotation Yrotation Xrotation
						JOINT RightForeArm
						{
							OFFSET -5.32214 -0.00000 0.00000
							CHANNELS 3 Zrotation Yrotation Xrotation
							JOINT RightHand
							{
								OFFSET -3.51208 -0.00000 0.00000
								CHANNELS 3 Zrotation Yrotation Xrotation
								JOINT RightFingerBase
								{
									OFFSET 0 0 0
									CHANNELS 3 Zrotation Yrotation Xrotation
									JOINT RightHandIndex1
									{
										OFFSET -0.58668 -0.00000 0.00000
										CHANNELS 3 Zrotation Yrotation Xrotation
										End Site
										{
											OFFSET -0.47300 -0.00000 0.00000
										}
									}
								}
								JOINT RThumb
								{
									OFFSET 0 0 0
									CHANNELS 3 Zrotation Yrotation Xrotation
									End Site
									{
										OFFSET -0.48022 -0.00000 0.48022
									}
								}
							}
						}
					}
				}
			}
		}
	}
}
MOTION
Frames: 10
Frame Time: 0.0166666
0.5916 15.3083 -16.6202 -1.9467 -1.3619 22.9931 0.0000 0.0000 0.0000 -10.5064 -10.1163 -67.2573 11.9365 18.3637 65.7874 1.1228 4.0129 -21.8367 0.0004 0.1275 0.3504 0.0000 0.0000 0.0000 10.1522 13.5264 -67.3265 -11.9950 -18.3885 65.9729 -1.2623 -0.7734 -21.5307 -0.0331 -1.1736 3.2267 -0.3565 0.2002 23.7540 1.6172 0.2058 12.2579 1.8920 0.0128 0.2315 -0.9441 1.0111 -15.8946 -0.6787 1.6991 13.7177 0.1100 0.7032 6.7974 -0.0000 0.0000 0.0000 -87.6175 -8.9293 39.4276 11.8479 -19.5761 -2.0510 -0.0000 0.0000 -18.3007 30.3554 -5.5908 -3.2655 -7.1250 0.0000 -0.0000 2.7033 23.5092 -1.4021 -0.0000 0.0000 0.0000 84.6102 9.2138 22.4243 -15.0092 24.1589 -3.2297 0.0000 0.0000 22.6559 -19.9305 -23.7097 8.2953 7.1250 -0.0000 -0.0000 9.9278 -54.7448 -2.3940
0.5899 15.3049 -16.6184 -1.9679 -1.3886 22.9893 0.0000 0.0000 0.0000 -10.4385 -10.1593 -67.2607 11.9581 18.3729 65.8561 1.1222 4.1090 -21.8850 0.0004 0.1230 0.3380 0.0000 0.0000 0.0000 10.1565 13.5834 -67.3310 -12.0100 -18.3949 66.0206 -1.2653 -0.7898 -21.5627 -0.0334 -1.1800 3.2443 -0.3685 0.1998 23.7751 1.6191 0.2027 12.2527 1.9016 0.0106 0.2158 -0.9491 1.0112 -15.8556 -0.6629 1.6969 13.7009 0.1154 0.7036 6.7852 0.0000 -0.0000 0.0000 -87.6670 -8.7841 39.3166 11.8108 -19.5203 -2.0386 -0.0000 0.0000 -18.1810 30.3604 -5.7288 -3.3464 -7.1250 0.0000 -0.0000 2.6978 23.3497 -1.4091 0.0000 -0.0000 0.0000 84.6157 9.1026 22.3508 -14.9906 24.1330 -3.2221 0.0000 0.0000 22.7194 -19.9050 -23.7556 8.2989 7.1250 -0.0000 -0.0000 9.9735 -54.7866 -2.4154
0.5881 15.3028 -16.6157 -1.9836 -1.4115 22.9761 0.0000 0.0000 0.0000 -10.3801 -10.2035 -67.2390 11.9729 18.3792 65.9029 1.1202 4.1984 -21.9178 0.0003 0.1159 0.3184 0.0000 0.0000 0.0000 10.1656 13.6270 -67.3147 -12.0198 -18.3990 66.0514 -1.2675 -0.8075 -21.5878 -0.0336 -1.1830 3.2524 -0.3810 0.1970 23.8064 1.6179 0.1968 12.2350 1.9089 0.0073 0.1813 -0.9508 1.0125 -15.8105 -0.6514 1.6964 13.7016 0.1191 0.7044 6.7776 -0.0000 0.0000 0.0000 -87.6980 -8.5679 39.1888 11.8045 -19.5108 -2.0365 -0.0000 0.0000 -18.1505 30.3217 -5.8620 -3.4184 -7.1250 0.0000 -0.0000 2.6604 23.1987 -1.3988 -0.0000 0.0000 0.0000 84.6316 8.9123 22.3139 -15.0240 24.1796 -3.2358 0.0000 0.0000 22.6694 -19.8622 -23.7591 8.2809 7.1250 -0.0000 -0.0000 10.0190 -54.7818 -2.4254
0.5864 15.3019 -16.6119 -1.9963 -1.4292 22.9528 0.0000 0.0000 0.0000 -10.3340 -10.2386 -67.1942 11.9819 18.3830 65.9313 1.1187 4.2696 -21.9447 0.0003 0.1133 0.3113 0.0000 0.0000 0.0000 10.1803 13.6576 -67.2771 -12.0252 -18.4013 66.0686 -1.2694 -0.8210 -21.6084 -0.0335 -1.1822 3.2503 -0.3842 0.1935 23.8434 1.6149 0.1918 12.2125 1.9086 0.0051 0.1387 -0.9503 1.0121 -15.7668 -0.6490 1.6946 13.6934 0.1193 0.7040 6.7675 -0.0000 -0.0000 0.0000 -87.6947 -8.2993 39.1062 11.8042 -19.5104 -2.0364 -0.0000 0.0000 -18.2798 30.2983 -6.0462 -3.5219 -7.1250 0.0000 -0.0000 2.6307 22.9879 -1.3958 -0.0000 -0.0000 0.0000 84.6492 8.6179 22.3355 -15.1263 24.3217 -3.2778 0.0000 0.0000 22.4343 -19.8335 -23.7029 8.2500 7.1250 -0.0000 -0.0000 10.0246 -54.7190 -2.4114
0.5847 15.3022 -16.6071 -2.0065 -1.4422 22.9290 0.0000 0.0000 0.0000 -10.3032 -10.2585 -67.1385 11.9856 18.3845 65.9431 1.1186 4.3197 -21.9722 0.0003 0.1152 0.3166 0.0000 0.0000 0.0000 10.1992 13.6775 -67.2279 -12.0267 -18.4019 66.0733 -1.2715 -0.8246 -21.6277 -0.0337 -1.1853 3.2589 -0.3798 0.1924 23.8646 1.6138 0.1915 12.1962 1.9051 0.0053 0.1105 -0.9563 1.0028 -15.7457 -0.6489 1.6829 13.6691 0.1189 0.6983 6.7560 -0.0000 -0.0000 0.0000 -87.6634 -8.0194 39.0623 11.7677 -19.4553 -2.0242 -0.0000 0.0000 -18.4920 30.3442 -6.3079 -3.6800 -7.1250 0.0000 -0.0000 2.6464 22.6830 -1.4226 -0.0000 -0.0000 0.0000 84.6538 8.2500 22.4266 -15.2516 24.4954 -3.3296 0.0000 0.0000 22.0530 -19.8973 -23.5924 8.2425 7.1250 -0.0000 -0.0000 9.9124 -54.6192 -2.3598
0.5830 15.3039 -16.6012 -2.0129 -1.4451 22.9043 0.0000 0.0000 0.0000 -10.2873 -10.2683 -67.0717 11.9837 18.3837 65.9370 1.1195 4.3500 -21.9972 0.0003 0.1185 0.3256 0.0000 0.0000 0.0000 10.2248 13.6800 -67.1646 -12.0241 -18.4008 66.0653 -1.2747 -0.8170 -21.6520 -0.0345 -1.1994 3.2975 -0.3736 0.1891 23.8665 1.6169 0.1885 12.1911 1.9056 0.0041 0.1040 -0.9701 0.9878 -15.7444 -0.6476 1.6650 13.6269 0.1196 0.6896 6.7421 -0.0000 -0.0000 0.0000 -87.6168 -7.7474 38.9946 11.6730 -19.3124 -1.9928 -0.0000 0.0000 -18.6358 30.3952 -6.5291 -3.8159 -7.1250 0.0000 -0.0000 2.6681 22.4242 -1.4501 -0.0000 -0.0000 0.0000 84.6484 7.8725 22.5437 -15.3205 24.5907 -3.3582 0.0000 0.0000 21.6928 -20.0749 -23.4578 8.2771 7.1250 -0.0000 -0.0000 9.6741 -54.5167 -2.2780
0.5811 15.3071 -16.5938 -2.0167 -1.4408 22.8760 0.0000 0.0000 0.0000 -10.2849 -10.2658 -66.9901 11.9762 18.3806 65.9132 1.1211 4.3634 -22.0180 0.0003 0.1176 0.3232 0.0000 0.0000 0.0000 10.2565 13.6707 -67.0825 -12.0181 -18.3983 66.0461 -1.2788 -0.8072 -21.6826 -0.0354 -1.2146 3.3394 -0.3663 0.1824 23.8531 1.6183 0.1815 12.1971 1.9045 0.0008 0.1174 -0.9595 0.9833 -15.7490 -0.6663 1.6592 13.5682 0.1110 0.6862 6.7242 -0.0000 0.0000 0.0000 -87.5468 -7.4835 38.8808 11.5219 -19.0837 -1.9431 -0.0000 0.0000 -18.5876 30.4173 -6.5945 -3.8573 -7.1250 0.0000 -0.0000 2.6795 22.3470 -1.4610 -0.0000 0.0000 0.0000 84.6560 7.5184 22.6031 -15.3158 24.5842 -3.3562 0.0000 0.0000 21.4807 -20.1824 -23.3308 8.2827 7.1250 -0.0000 -0.0000 9.5116 -54.4081 -2.2140
0.5788 15.3111 -16.5854 -2.0201 -1.4318 22.8464 0.0000 0.0000 0.0000 -10.2899 -10.2493 -66.9003 11.9650 18.3758 65.8779 1.1235 4.3614 -22.0376 0.0003 0.1058 0.2907 0.0000 0.0000 0.0000 10.2939 13.6579 -66.9900 -12.0098 -18.3948 66.0199 -1.2826 -0.8086 -21.7149 -0.0355 -1.2162 3.3438 -0.3547 0.1742 23.8280 1.6139 0.1731 12.2078 1.8951 -0.0029 0.1416 -0.9345 0.9902 -15.7447 -0.6895 1.6658 13.5031 0.0999 0.6893 6.7029 0.0000 -0.0000 0.0000 -87.4445 -7.2123 38.7154 11.3257 -18.7857 -1.8795 -0.0000 0.0000 -18.2852 30.4952 -6.6540 -3.9039 -7.1250 0.0000 -0.0000 2.7321 22.2725 -1.4944 0.0000 -0.0000 0.0000 84.6892 7.1810 22.5451 -15.2605 24.5078 -3.3333 0.0000 0.0000 21.4726 -20.0965 -23.2438 8.2163 7.1250 -0.0000 -0.0000 9.5642 -54.3028 -2.2018
0.5758 15.3154 -16.5765 -2.0226 -1.4179 22.8069 0.0000 0.0000 0.0000 -10.3037 -10.2192 -66.7999 11.9525 18.3705 65.8381 1.1265 4.3487 -22.0567 0.0002 0.0802 0.2205 0.0000 0.0000 0.0000 10.3369 13.6420 -66.8847 -12.0004 -18.3908 65.9901 -1.2857 -0.8237 -21.7467 -0.0348 -1.2041 3.3106 -0.3386 0.1664 23.8090 1.6063 0.1661 12.2193 1.8793 -0.0054 0.1637 -0.9227 0.9936 -15.7524 -0.6905 1.6677 13.4661 0.0977 0.6910 6.6923 0.0000 -0.0000 0.0000 -87.3179 -6.9110 38.4995 11.1183 -18.4694 -1.8132 -0.0000 0.0000 -17.8142 30.5891 -6.6663 -3.9257 -7.1250 0.0000 -0.0000 2.7996 22.2511 -1.5328 0.0000 -0.0000 0.0000 84.7408 6.8505 22.3621 -15.1747 24.3889 -3.2978 0.0000 0.0000 21.6391 -19.8632 -23.2262 8.1084 7.1250 -0.0000 -0.0000 9.7955 -54.2399 -2.2407
0.5724 15.3195 -16.5676 -2.0182 -1.3949 22.7501 0.0000 0.0000 0.0000 -10.3295 -10.1855 -66.6857 11.9407 18.3655 65.8007 1.1292 4.3359 -22.0724 0.0000 0.0430 0.1180 0.0000 0.0000 0.0000 10.3783 13.6181 -66.7634 -11.9922 -18.3873 65.9640 -1.2894 -0.8437 -21.7846 -0.0343 -1.1952 3.2861 -0.3271 0.1572 23.8097 1.6016 0.1567 12.2329 1.8699 -0.0095 0.1788 -0.9129 0.9902 -15.7892 -0.6938 1.6619 13.4669 0.0947 0.6883 6.6990 0.0000 -0.0000 0.0000 -87.1831 -6.5792 38.2334 10.9363 -18.1905 -1.7560 -0.0000 0.0000 -17.3620 30.5632 -6.4690 -3.8064 -7.1250 0.0000 -0.0000 2.7952 22.4810 -1.5157 0.0000 -0.0000 0.0000 84.7944 6.5322 22.0727 -15.0656 24.2375 -3.2528 0.0000 0.0000 21.9556 -19.5925 -23.2889 8.0104 7.1250 -0.0000 -0.0000 10.0978 -54.2517 -2.3138
